<svg width="128" height="48" xmlns="http://www.w3.org/2000/svg">
  <!-- Frame 1: Down -->
  <g transform="translate(0, 0)">
    <rect x="8" y="4" width="16" height="20" fill="#c2a3d1"/> <!-- Head -->
    <rect x="6" y="24" width="20" height="20" fill="#5a4e63"/> <!-- Body -->
    <rect x="10" y="22" width="12" height="4" fill="#4a3f53"/> <!-- Neck Shadow -->
    <rect x="12" y="8" width="4" height="4" fill="#fff"/> <!-- Eye L -->
    <rect x="20" y="8" width="4" height="4" fill="#fff"/> <!-- Eye R -->
  </g>
  <!-- Frame 2: Up -->
  <g transform="translate(32, 0)">
    <rect x="8" y="4" width="16" height="20" fill="#c2a3d1"/> <!-- Head -->
    <rect x="6" y="24" width="20" height="20" fill="#5a4e63"/> <!-- Body -->
  </g>
  <!-- Frame 3: Left -->
  <g transform="translate(64, 0)">
    <rect x="8" y="4" width="16" height="20" fill="#c2a3d1"/> <!-- Head -->
    <rect x="6" y="24" width="20" height="20" fill="#5a4e63"/> <!-- Body -->
    <rect x="10" y="8" width="4" height="4" fill="#fff"/> <!-- Eye -->
  </g>
  <!-- Frame 4: Right -->
  <g transform="translate(96, 0)">
    <rect x="8" y="4" width="16" height="20" fill="#c2a3d1"/> <!-- Head -->
    <rect x="6" y="24" width="20" height="20" fill="#5a4e63"/> <!-- Body -->
    <rect x="22" y="8" width="4" height="4" fill="#fff"/> <!-- Eye -->
  </g>
</svg>
